<?xml version="1.0" encoding="UTF-8" standalone="no"?>
<!-- Generator: Adobe Illustrator 27.0.1, SVG Export Plug-In . SVG Version: 6.00 Build 0)  -->

<svg
   version="1.1"
   id="Calque_1"
   x="0px"
   y="0px"
   viewBox="0 0 1599.8117 1522.1"
   xml:space="preserve"
   sodipodi:docname="developpement-nouvelles-offres.svg"
   width="1599.8118"
   height="1522.1"
   inkscape:version="1.1.1 (c3084ef, 2021-09-22)"
   xmlns:inkscape="http://www.inkscape.org/namespaces/inkscape"
   xmlns:sodipodi="http://sodipodi.sourceforge.net/DTD/sodipodi-0.dtd"
   xmlns:xlink="http://www.w3.org/1999/xlink"
   xmlns="http://www.w3.org/2000/svg"
   xmlns:svg="http://www.w3.org/2000/svg"><defs
   id="defs1795" /><sodipodi:namedview
   id="namedview1793"
   pagecolor="#ffffff"
   bordercolor="#666666"
   borderopacity="1.0"
   inkscape:pageshadow="2"
   inkscape:pageopacity="0.0"
   inkscape:pagecheckerboard="0"
   showgrid="false"
   inkscape:zoom="0.32570743"
   inkscape:cx="804.40289"
   inkscape:cy="747.60345"
   inkscape:window-width="1296"
   inkscape:window-height="969"
   inkscape:window-x="0"
   inkscape:window-y="25"
   inkscape:window-maximized="0"
   inkscape:current-layer="Calque_1" />
<style
   type="text/css"
   id="style1041">
	.st0{fill:#C5E1F9;}
	.st1{fill:#9AC7F7;}
	.st2{fill:#FDA621;}
	.st3{fill:#FFAB01;}
	.st4{fill:#29BFFF;}
	.st5{fill:none;stroke:#F4DA80;stroke-width:4.9977;stroke-miterlimit:10;}
	.st6{fill:#22A8D6;}
	.st7{fill:#FFFFFF;}
	.st8{fill:#FFBF0D;}
	.st9{fill:#EAF4FE;}
	.st10{fill:#B2D2EA;}
	.st11{enable-background:new    ;}
	.st12{fill:#CED6D9;}
	.st13{fill:#94999B;}
	.st14{clip-path:url(#SVGID_00000168820341481708280500000014318254397450077081_);enable-background:new    ;}
	.st15{fill:#A9B0B2;}
	.st16{clip-path:url(#SVGID_00000021115013631309874620000017583101774647847842_);enable-background:new    ;}
	.st17{clip-path:url(#SVGID_00000166656493636501572920000017767630029518942133_);enable-background:new    ;}
	.st18{fill:#ADB4B6;}
	.st19{clip-path:url(#SVGID_00000134950217785838765070000008147927856065438356_);enable-background:new    ;}
	.st20{fill:#979D9F;}
	.st21{clip-path:url(#SVGID_00000104677610641717962330000001379772539334117526_);enable-background:new    ;}
	.st22{fill:#393CA6;}
	.st23{fill:#9969F3;}
	.st24{clip-path:url(#SVGID_00000020398491717676148950000018445510951801774722_);enable-background:new    ;}
	.st25{fill:#C8A756;}
	.st26{fill:#F3CC68;}
	.st27{clip-path:url(#SVGID_00000100357469693588409300000016077862327032422793_);enable-background:new    ;}
	.st28{fill:#C5C7A0;}
	.st29{clip-path:url(#SVGID_00000005988467137975855890000001187143854853042311_);enable-background:new    ;}
	.st30{fill:#734FB8;}
	.st31{clip-path:url(#SVGID_00000052803384653793341790000001491675952512872595_);enable-background:new    ;}
	.st32{fill:#F4901E;}
	.st33{fill:#3FB94A;}
	.st34{clip-path:url(#SVGID_00000086661686424315631030000004085556308759273871_);}
	.st35{fill:#96A2BD;}
	.st36{fill:#BFD8F1;}
	.st37{clip-path:url(#SVGID_00000042720107375770813070000004319366143975700612_);enable-background:new    ;}
	.st38{fill:#C5A555;}
	.st39{fill:#C2A354;}
	.st40{fill:#BFA153;}
	.st41{fill:#E4EFFF;}
	.st42{fill:#2DBC42;}
	.st43{clip-path:url(#SVGID_00000003786873734439248920000001831633009017996217_);enable-background:new    ;}
	.st44{fill:#613DCD;}
	.st45{clip-path:url(#SVGID_00000109710345187670575860000010994839259705721508_);enable-background:new    ;}
	.st46{fill:#C9C4BB;}
	.st47{clip-path:url(#SVGID_00000132796989132054305620000011453846310869943725_);enable-background:new    ;}
	.st48{fill:#1F70BE;}
	.st49{fill:#BB8F37;}
	.st50{clip-path:url(#SVGID_00000175321471712722244410000013028804683302647981_);enable-background:new    ;}
	.st51{fill:#3BCAAB;}
	.st52{clip-path:url(#SVGID_00000176031143352596953400000012349580029953275058_);enable-background:new    ;}
	.st53{fill:#C9C9C9;}
	.st54{fill:#CCCCCC;}
	.st55{fill:#C61241;}
	.st56{clip-path:url(#SVGID_00000028290723311314375200000004609876913182750859_);enable-background:new    ;}
	.st57{fill:#E41342;}
	.st58{fill:#B0BFDE;}
	.st59{fill:#535C68;}
	.st60{fill:#3A48C8;}
	.st61{clip-path:url(#SVGID_00000155136290795499108350000016338180416553617794_);enable-background:new    ;}
	.st62{fill:#92A4B7;}
	.st63{fill:#B1C8DF;}
	.st64{clip-path:url(#SVGID_00000057866997391443497780000017310119120276082855_);enable-background:new    ;}
	.st65{clip-path:url(#SVGID_00000137842105001619475760000017495397961209190290_);}
	.st66{fill:#3B48CA;}
	.st67{fill:#009BD1;}
	.st68{clip-path:url(#SVGID_00000056410110002362662620000012522773865546967717_);enable-background:new    ;}
	.st69{clip-path:url(#SVGID_00000063603343678734897090000014215038741749914522_);enable-background:new    ;}
	.st70{fill:#57606B;}
	.st71{fill:#545D69;}
	.st72{clip-path:url(#SVGID_00000092428271687772303040000012988332650175037851_);enable-background:new    ;}
	.st73{clip-path:url(#SVGID_00000083069935002175448770000011499223290070590620_);enable-background:new    ;}
	.st74{fill:none;stroke:#9AC7F7;stroke-width:2.9657;stroke-miterlimit:10;}
	.st75{fill:none;stroke:#29BFFF;stroke-width:2.9657;stroke-miterlimit:10;}
	.st76{fill:#EF941D;}
	.st77{fill:#00046D;}
	.st78{fill:#F7B68B;}
	.st79{fill:#B70F3B;}
	.st80{fill:#212A54;}
	.st81{fill:#EC9568;}
	.st82{fill:none;stroke:#212A54;stroke-width:0.3462;stroke-miterlimit:10;}
</style>
<g
   id="Layer_2"
   transform="translate(-80.088201,-211.8)">
</g>
<g
   id="g1668"
   transform="translate(-80.088201,-211.8)">
	<g
   id="Layer_4_11_">
		<g
   id="g1058">
			<g
   id="g1056">
				<g
   id="g1048">
					<path
   class="st0"
   d="m 1183.3,429.7 -25.9,6.5 -6.5,-13.2 c -3.8,0 -7.6,-0.2 -11.5,-0.7 l -6.9,12.9 -25.7,-7.3 1.1,-16.2 c -3,-1.7 -5.8,-3.5 -8.5,-5.6 l -13.6,8.5 -18.6,-19.2 9.6,-14.4 c -1.6,-2.7 -3,-5.4 -4.3,-8.2 l -16.9,0.6 -6.5,-25.9 15.8,-7.7 c -0.1,-3 0,-6 0.2,-9.1 l -15.1,-8 7.3,-25.7 17,1.1 c 1.5,-2.9 3.1,-5.6 4.9,-8.3 l -8.7,-13.9 19.2,-18.6 13.2,8.8 c 3,-2 6.1,-3.8 9.3,-5.4 l -0.5,-15 25.9,-6.5 6.3,12.8 c 4,-0.3 8.1,-0.3 12.2,0 l 6.3,-11.8 25.7,7.3 -0.8,12.7 c 4.1,2 8.1,4.3 11.8,6.8 l 10.1,-6.3 18.6,19.2 -6.5,9.7 c 2.7,4 5.1,8.3 7.1,12.7 l 11,-0.4 6.5,25.9 -10.1,5 c 0.3,4.9 0.1,9.8 -0.5,14.7 l 9.7,5.1 -7.3,25.7 -11.8,-0.8 c -2.2,4.2 -4.8,8.2 -7.7,11.9 l 6.2,9.9 -19.2,18.6 -10.9,-7.3 c -3.7,2.2 -7.6,4.2 -11.6,5.8 z m 10.3,-79.9 c 6.8,-23.9 -7,-48.7 -30.9,-55.5 -23.9,-6.8 -48.7,7 -55.5,30.9 -6.8,23.9 7,48.7 30.9,55.5 23.8,6.8 48.7,-7 55.5,-30.9 z"
   id="path1044" />
					<path
   class="st1"
   d="m 1088.3,319.9 c 9.8,-34.3 45.5,-54.2 79.7,-44.4 34.3,9.8 54.1,45.5 44.4,79.7 -9.8,34.3 -45.5,54.1 -79.7,44.4 -34.3,-9.8 -54.2,-45.5 -44.4,-79.7 z m 111.2,31.6 c 7.7,-27.2 -8,-55.5 -35.2,-63.2 -27.2,-7.7 -55.5,8 -63.2,35.2 -7.7,27.2 8,55.5 35.2,63.2 27.2,7.7 55.5,-8 63.2,-35.2 z"
   id="path1046" />
				</g>
				<g
   id="g1054">
					<path
   class="st0"
   d="m 1079,594.2 -16.4,4.1 -4.1,-8.3 c -2.4,0 -4.8,-0.1 -7.3,-0.5 l -4.3,8.2 -16.3,-4.6 0.7,-10.2 c -1.9,-1.1 -3.7,-2.2 -5.4,-3.5 l -8.6,5.4 -11.8,-12.2 6.1,-9.1 c -1,-1.7 -1.9,-3.4 -2.7,-5.2 l -10.7,0.4 -4.1,-16.4 10,-4.9 c -0.1,-1.9 0,-3.8 0.1,-5.7 l -9.5,-5.1 4.6,-16.3 10.8,0.7 c 0.9,-1.8 2,-3.6 3.1,-5.3 l -5.5,-8.8 12.2,-11.8 8.3,5.6 c 1.9,-1.3 3.9,-2.4 5.9,-3.4 l -0.3,-9.5 16.4,-4.1 4,8.1 c 2.6,-0.2 5.1,-0.2 7.8,0 l 4,-7.5 16.3,4.6 -0.5,8.1 c 2.6,1.3 5.1,2.7 7.5,4.3 l 6.4,-4 11.8,12.2 -4.1,6.1 c 1.7,2.5 3.2,5.2 4.5,8 l 7,-0.2 4.1,16.4 -6.4,3.2 c 0.2,3.1 0.1,6.2 -0.3,9.3 l 6.1,3.2 -4.6,16.3 -7.5,-0.5 c -1.4,2.7 -3,5.2 -4.8,7.5 l 3.9,6.3 -12.2,11.8 -6.9,-4.6 c -2.4,1.4 -4.8,2.6 -7.3,3.7 z m 6.5,-50.6 c 4.3,-15.1 -4.5,-30.9 -19.6,-35.2 -15.1,-4.3 -30.9,4.5 -35.2,19.6 -4.3,15.1 4.5,30.9 19.6,35.2 15.2,4.2 30.9,-4.5 35.2,-19.6 z"
   id="path1050" />
					<path
   class="st1"
   d="m 1018.8,524.6 c 6.2,-21.7 28.8,-34.3 50.5,-28.1 21.7,6.2 34.3,28.8 28.1,50.5 -6.2,21.7 -28.8,34.3 -50.5,28.1 -21.7,-6.2 -34.3,-28.8 -28.1,-50.5 z m 70.5,20 c 4.9,-17.2 -5.1,-35.1 -22.3,-40 -17.2,-4.9 -35.1,5.1 -40,22.3 -4.9,17.2 5.1,35.1 22.3,40 17.2,4.9 35.1,-5.1 40,-22.3 z"
   id="path1052" />
				</g>
			</g>
		</g>
	</g>
	<g
   id="g1666">
		<g
   id="Layer_4_12_">
			<g
   id="g1077">
				<path
   class="st2"
   d="m 208.3,780.3 c -0.6,-37.8 -23.9,-68.1 -65.2,-67.5 -41.3,0.7 -63.6,31.7 -63,69.6 0.5,29.5 21.3,39.4 39.3,63.6 3.5,4.8 0.4,23.9 0.4,23.9 l 51.6,-0.8 c 0,0 -3.8,-19 -0.4,-23.9 17.3,-24.8 37.8,-35.4 37.3,-64.9 z"
   id="path1061" />
				<path
   class="st3"
   d="M 141.2,856.9 C 116.4,823.5 87.5,809.8 86.9,769 c -0.1,-8.8 0.6,-17.3 2.2,-25.4 -6.1,11.1 -9.2,24.4 -8.9,38.8 0.5,29.5 21.3,39.4 39.3,63.6 3.5,4.8 0.4,23.9 0.4,23.9 l 23.7,-0.4 c -0.1,-5.3 -0.6,-10.2 -2.4,-12.6 z"
   id="path1063" />
				<path
   class="st4"
   d="m 119,869.9 0.1,7.1 c 0.2,11.8 9.9,21.2 21.7,21 l 10.7,-0.2 c 11.8,-0.2 21.2,-9.9 21,-21.7 l -0.1,-7.1 z"
   id="path1065" />
				<polyline
   class="st5"
   points="115.9,779.6 123.9,768.8 132.3,779.4 140.3,768.5 148.6,779.1 156.6,768.3 165,778.8 173,768       181.4,778.5     "
   id="polyline1067" />
				<polyline
   class="st5"
   points="125.5,788.8 137.9,823.9 138.7,868.7     "
   id="polyline1069" />
				<polyline
   class="st5"
   points="165.6,788.2 154.3,823.6 155,868.4     "
   id="polyline1071" />
				
					<rect
   x="133.60001"
   y="873.20001"
   transform="matrix(0.9999,-0.01629947,0.01629947,0.9999,-14.2572,2.5659)"
   class="st6"
   width="33.400002"
   height="5.5"
   id="rect1073" />
				
					<rect
   x="133.8"
   y="883.20001"
   transform="matrix(0.9999,-0.01629947,0.01629947,0.9999,-14.4223,2.4939)"
   class="st6"
   width="24"
   height="5.5"
   id="rect1075" />
			</g>
			<g
   id="g1089">
				<polygon
   class="st4"
   points="337.6,452.6 402.4,587.9 302.3,552.6 "
   id="polygon1079" />
				<g
   id="g1087">
					<g
   id="g1083">
						<path
   class="st4"
   d="m 232.7,508.8 c 0,-43.4 35.2,-78.6 78.6,-78.6 43.4,0 78.6,35.2 78.6,78.6 0,43.4 -35.2,78.6 -78.6,78.6 -43.4,0 -78.6,-35.2 -78.6,-78.6 z"
   id="path1081" />
					</g>
					<path
   class="st7"
   d="m 326.9,542.8 c -27.2,0 -49.3,-22.1 -49.3,-49.3 v -12.3 c 0,-3.4 2.8,-6.2 6.2,-6.2 h 12.3 c 1.5,0 2,0.6 2.2,0.7 0.8,0.9 0.9,2.3 0.9,4.6 v 14 c 0,2.3 0,3.8 -0.9,4.6 -0.2,0.2 -0.7,0.7 -2.1,0.7 l -3.4,0.1 0.4,3.4 c 1.6,12.6 11.5,22.5 24.1,24.1 l 3.4,0.4 0.1,-3.4 c 0,-1.4 0.6,-1.9 0.7,-2.1 0.7,-0.7 2,-0.9 3.8,-0.9 h 15.6 c 1.9,0 3.1,0.1 3.8,0.9 0.2,0.2 0.7,0.7 0.7,2.2 v 12.3 c 0,3.4 -2.8,6.2 -6.2,6.2 z"
   id="path1085" />
				</g>
			</g>
			<g
   id="g1121">
				<g
   id="g1099">
					<path
   class="st1"
   d="m 1509,419.8 -87.2,60.7 v 6.7 c 0,6.6 5.3,11.9 11.9,11.9 h 150.7 c 6.6,0 11.9,-5.3 11.9,-11.9 v -6.7 z"
   id="path1091" />
					<path
   class="st8"
   d="m 1433.7,609.3 c -6.6,0 -11.9,-5.3 -11.9,-11.9 V 494.3 c 0,-6.6 5.3,-11.9 11.9,-11.9 h 150.7 c 6.6,0 11.9,5.3 11.9,11.9 v 103.1 c 0,6.6 -5.3,11.9 -11.9,11.9 z"
   id="path1093" />
					<path
   class="st8"
   d="m 1433.7,609.3 c -6.6,0 -11.9,-5.3 -11.9,-11.9 V 494.3 c 0,-6.6 5.3,-11.9 11.9,-11.9 h 150.7 c 6.6,0 11.9,5.3 11.9,11.9 v 103.1 c 0,6.6 -5.3,11.9 -11.9,11.9 z"
   id="path1095" />
					<path
   class="st1"
   d="m 1584.4,482.4 h -150.7 c -6.6,0 -11.9,5.3 -11.9,11.9 v 6.2 l 138.4,108.8 h 24.1 c 6.6,0 11.9,-5.3 11.9,-11.9 V 494.3 c 0.1,-6.6 -5.3,-11.9 -11.8,-11.9 z"
   id="path1097" />
				</g>
				<g
   id="g1115">
					<path
   class="st9"
   d="m 1572.6,559.6 c 0,6.6 -5.3,11.9 -11.9,11.9 h -103.1 c -6.6,0 -11.9,-5.3 -11.9,-11.9 V 408.9 c 0,-6.6 5.3,-11.9 11.9,-11.9 h 71.4 l 43.6,43.6 z"
   id="path1101" />
					<polygon
   class="st0"
   points="1572.6,440.6 1568.6,436.7 1532.9,436.7 1572.6,475.8 "
   id="polygon1103" />
					<path
   class="st4"
   d="m 1529,397 v 31.7 c 0,6.6 5.3,11.9 11.9,11.9 h 31.7 z"
   id="path1105" />
					<rect
   x="1469.5"
   y="492.20001"
   class="st1"
   width="79.300003"
   height="7.9000001"
   id="rect1107" />
					<rect
   x="1469.5"
   y="508"
   class="st1"
   width="79.300003"
   height="7.9000001"
   id="rect1109" />
					<rect
   x="1469.5"
   y="523.90002"
   class="st1"
   width="79.300003"
   height="7.9000001"
   id="rect1111" />
					<rect
   x="1469.5"
   y="476.29999"
   class="st1"
   width="59.5"
   height="7.9000001"
   id="rect1113" />
				</g>
				<path
   class="st0"
   d="m 1421.8,500.5 v -6.2 103.1 c 0,6.6 5.3,11.9 11.9,11.9 h 126.5 z"
   id="path1117" />
				<path
   class="st10"
   d="m 1596.3,500.5 v -6.2 103.1 c 0,6.6 -5.3,11.9 -11.9,11.9 h -126.5 z"
   id="path1119" />
			</g>
			<g
   id="g1637">
				<g
   id="g1635">
					<g
   class="st11"
   id="g1633">
						<g
   id="g1125">
							<path
   class="st12"
   d="m 797.3,272.9 c -0.7,0.6 -1.3,1.3 -2,1.9 0.7,-0.6 1.4,-1.3 2,-1.9 z"
   id="path1123" />
						</g>
						<g
   id="g1129">
							<path
   class="st13"
   d="m 884.6,233.2 c 0.5,0 1,-0.1 1.6,-0.1 -0.5,0 -1,0.1 -1.6,0.1 z"
   id="path1127" />
						</g>
						<g
   class="st11"
   id="g1145">
							<g
   id="g1143">
								<g
   id="g1141">
									<defs
   id="defs1132">
										<path
   id="SVGID_1_"
   d="m 797.3,272.9 c -0.7,0.6 -1.3,1.3 -2,1.9 L 783,253.6 c 0.7,-0.7 1.3,-1.3 2,-1.9 3.7,6.3 8.6,14.8 12.3,21.2 z" />
									</defs>
									<clipPath
   id="SVGID_00000163074809172996939170000003150160452598944954_">
										<use
   xlink:href="#SVGID_1_"
   style="overflow:visible"
   id="use1134"
   x="0"
   y="0"
   width="100%"
   height="100%" />
									</clipPath>
									<g
   style="enable-background:new"
   clip-path="url(#SVGID_00000163074809172996939170000003150160452598944954_)"
   id="g1139">
										<path
   class="st15"
   d="m 785.1,251.7 12.3,21.2 c -0.7,0.6 -1.3,1.3 -2,1.9 l -12.3,-21.2 c 0.6,-0.6 1.3,-1.3 2,-1.9"
   id="path1137" />
									</g>
								</g>
							</g>
						</g>
						<g
   class="st11"
   id="g1161">
							<g
   id="g1159">
								<g
   id="g1157">
									<defs
   id="defs1148">
										<path
   id="SVGID_00000057133269186277553990000001445023590486059419_"
   d="m 775.4,261.9 12.3,21.2 c -0.8,1 -1.6,2 -2.4,3 L 773,264.9 c 0.8,-1 1.6,-2 2.4,-3 z" />
									</defs>
									<clipPath
   id="SVGID_00000152250222905899014100000012312651417514364815_">
										<use
   xlink:href="#SVGID_00000057133269186277553990000001445023590486059419_"
   style="overflow:visible"
   id="use1150"
   x="0"
   y="0"
   width="100%"
   height="100%" />
									</clipPath>
									<g
   style="enable-background:new"
   clip-path="url(#SVGID_00000152250222905899014100000012312651417514364815_)"
   id="g1155">
										<path
   class="st15"
   d="m 775.4,261.9 12.3,21.2 c -0.8,1 -1.6,2 -2.4,3 L 773,264.9 c 0.8,-1 1.6,-2 2.4,-3"
   id="path1153" />
									</g>
								</g>
							</g>
						</g>
						<g
   id="g1165">
							<path
   class="st13"
   d="m 775.4,261.9 c -0.8,1 -1.6,2 -2.4,3 0.8,-1 1.6,-2 2.4,-3 z"
   id="path1163" />
						</g>
						<g
   class="st11"
   id="g1181">
							<g
   id="g1179">
								<g
   id="g1177">
									<defs
   id="defs1168">
										<path
   id="SVGID_00000137820326320256830660000007731449834321375620_"
   d="m 768.5,270.9 12.3,21.2 c 0,0.1 -0.1,0.1 -0.1,0.2 l -12.3,-21.2 c 0,-0.1 0,-0.1 0.1,-0.2 z" />
									</defs>
									<clipPath
   id="SVGID_00000023261698234075614690000017041815332541548722_">
										<use
   xlink:href="#SVGID_00000137820326320256830660000007731449834321375620_"
   style="overflow:visible"
   id="use1170"
   x="0"
   y="0"
   width="100%"
   height="100%" />
									</clipPath>
									<g
   style="enable-background:new"
   clip-path="url(#SVGID_00000023261698234075614690000017041815332541548722_)"
   id="g1175">
										<path
   class="st18"
   d="m 768.5,270.9 12.3,21.2 c 0,0.1 -0.1,0.1 -0.1,0.2 l -12.3,-21.2 c 0,-0.1 0,-0.1 0.1,-0.2"
   id="path1173" />
									</g>
								</g>
							</g>
						</g>
						<g
   class="st11"
   id="g1197">
							<g
   id="g1195">
								<g
   id="g1193">
									<defs
   id="defs1184">
										<path
   id="SVGID_00000152959632641529872150000009823966514312331405_"
   d="m 886.2,233.1 c -0.5,0 -1,0.1 -1.6,0.1 L 872.4,212 c 0.5,0 1,-0.1 1.6,-0.1 3.6,6.3 8.5,14.8 12.2,21.2 z" />
									</defs>
									<clipPath
   id="SVGID_00000011014624336224227010000007880306825848584839_">
										<use
   xlink:href="#SVGID_00000152959632641529872150000009823966514312331405_"
   style="overflow:visible"
   id="use1186"
   x="0"
   y="0"
   width="100%"
   height="100%" />
									</clipPath>
									<g
   style="enable-background:new"
   clip-path="url(#SVGID_00000011014624336224227010000007880306825848584839_)"
   id="g1191">
										<path
   class="st20"
   d="m 873.9,211.9 12.3,21.2 c -0.5,0 -1,0.1 -1.6,0.1 L 872.4,212 c 0.5,-0.1 1,-0.1 1.5,-0.1"
   id="path1189" />
									</g>
								</g>
							</g>
						</g>
						<g
   class="st11"
   id="g1213">
							<g
   id="g1211">
								<g
   id="g1209">
									<defs
   id="defs1200">
										<path
   id="SVGID_00000055708992694627870540000006689594012988889496_"
   d="m 897.2,233.1 c -0.8,0 -1.6,-0.1 -2.4,-0.1 l -12.3,-21.2 c 0.8,0 1.6,0 2.4,0.1 3.7,6.3 8.7,14.8 12.3,21.2 z" />
									</defs>
									<clipPath
   id="SVGID_00000098202218301484946920000017705131574988711334_">
										<use
   xlink:href="#SVGID_00000055708992694627870540000006689594012988889496_"
   style="overflow:visible"
   id="use1202"
   x="0"
   y="0"
   width="100%"
   height="100%" />
									</clipPath>
									<g
   style="enable-background:new"
   clip-path="url(#SVGID_00000098202218301484946920000017705131574988711334_)"
   id="g1207">
										<path
   class="st22"
   d="m 885,211.9 12.3,21.2 c -0.8,0 -1.6,-0.1 -2.4,-0.1 l -12.3,-21.2 c 0.7,0 1.5,0 2.4,0.1"
   id="path1205" />
									</g>
								</g>
							</g>
						</g>
						<g
   id="g1217">
							<path
   class="st23"
   d="m 922.6,238.5 c 1.3,0.5 2.6,1.1 3.8,1.7 -1.2,-0.6 -2.4,-1.2 -3.8,-1.7 z"
   id="path1215" />
						</g>
						<g
   class="st11"
   id="g1233">
							<g
   id="g1231">
								<g
   id="g1229">
									<defs
   id="defs1220">
										<path
   id="SVGID_00000088119904009145728160000017454973131605869732_"
   d="m 767.6,318.8 c -0.1,0.4 -0.3,0.9 -0.4,1.4 L 754.9,299 c 0.1,-0.5 0.3,-0.9 0.4,-1.4 3.7,6.3 8.6,14.8 12.3,21.2 z" />
									</defs>
									<clipPath
   id="SVGID_00000104675480853811316510000008053014407686807727_">
										<use
   xlink:href="#SVGID_00000088119904009145728160000017454973131605869732_"
   style="overflow:visible"
   id="use1222"
   x="0"
   y="0"
   width="100%"
   height="100%" />
									</clipPath>
									<g
   style="enable-background:new"
   clip-path="url(#SVGID_00000104675480853811316510000008053014407686807727_)"
   id="g1227">
										<path
   class="st25"
   d="m 755.3,297.5 12.3,21.2 c -0.1,0.4 -0.3,0.9 -0.4,1.4 l -12.3,-21.2 c 0.1,-0.5 0.2,-0.9 0.4,-1.4"
   id="path1225" />
									</g>
								</g>
							</g>
						</g>
						<g
   id="g1237">
							<path
   class="st26"
   d="m 755.3,297.5 c -0.1,0.5 -0.3,0.9 -0.4,1.4 0.1,-0.5 0.2,-0.9 0.4,-1.4 z"
   id="path1235" />
						</g>
						<g
   class="st11"
   id="g1253">
							<g
   id="g1251">
								<g
   id="g1249">
									<defs
   id="defs1240">
										<path
   id="SVGID_00000168102633003510588090000014542740664447314108_"
   d="m 754.5,300.4 c 3.7,6.4 8.6,14.9 12.3,21.2 -1,-1.7 -2,-3.4 -3,-5 -3.1,-5.3 -6.3,-10.6 -9.4,-15.9 0,-0.1 0,-0.2 0.1,-0.3 z" />
									</defs>
									<clipPath
   id="SVGID_00000116196287864177619420000016308325575619681727_">
										<use
   xlink:href="#SVGID_00000168102633003510588090000014542740664447314108_"
   style="overflow:visible"
   id="use1242"
   x="0"
   y="0"
   width="100%"
   height="100%" />
									</clipPath>
									<g
   style="enable-background:new"
   clip-path="url(#SVGID_00000116196287864177619420000016308325575619681727_)"
   id="g1247">
										<path
   class="st25"
   d="m 754.5,300.4 12.3,21.2 c -1.4,5.5 -2.1,10.9 -2.2,16.1 l -12.3,-21.2 c 0,-5.2 0.7,-10.6 2.2,-16.1"
   id="path1245" />
									</g>
								</g>
							</g>
						</g>
						<g
   id="g1257">
							<polygon
   class="st28"
   points="885.8,257.5 873.5,236.2 885,211.9 897.2,233.1 "
   id="polygon1255" />
						</g>
						<g
   class="st11"
   id="g1273">
							<g
   id="g1271">
								<g
   id="g1269">
									<defs
   id="defs1260">
										<path
   id="SVGID_00000091697795421568793940000016478974696180158361_"
   d="m 914.2,218.9 12.3,21.2 c -1.2,-0.6 -2.5,-1.1 -3.8,-1.7 l -12.3,-21.2 c 1.3,0.6 2.5,1.1 3.8,1.7 z" />
									</defs>
									<clipPath
   id="SVGID_00000063625626443819993970000015434203535083907233_">
										<use
   xlink:href="#SVGID_00000091697795421568793940000016478974696180158361_"
   style="overflow:visible"
   id="use1262"
   x="0"
   y="0"
   width="100%"
   height="100%" />
									</clipPath>
									<g
   style="enable-background:new"
   clip-path="url(#SVGID_00000063625626443819993970000015434203535083907233_)"
   id="g1267">
										<path
   class="st30"
   d="m 914.2,218.9 12.3,21.2 c -1.2,-0.6 -2.5,-1.1 -3.8,-1.7 l -12.3,-21.2 c 1.3,0.6 2.5,1.1 3.8,1.7"
   id="path1265" />
									</g>
								</g>
							</g>
						</g>
						<g
   class="st11"
   id="g1289">
							<g
   id="g1287">
								<g
   id="g1285">
									<defs
   id="defs1276">
										<path
   id="SVGID_00000181067599671869181570000006129187499150396562_"
   d="m 891.1,239.9 12.3,21.2 c -5.4,-2.2 -11.3,-3.4 -17.6,-3.7 l -12.3,-21.2 c 6.2,0.4 12.2,1.6 17.6,3.7 z" />
									</defs>
									<clipPath
   id="SVGID_00000144309252155989741870000000005897639338748092_">
										<use
   xlink:href="#SVGID_00000181067599671869181570000006129187499150396562_"
   style="overflow:visible"
   id="use1278"
   x="0"
   y="0"
   width="100%"
   height="100%" />
									</clipPath>
									<g
   style="enable-background:new"
   clip-path="url(#SVGID_00000144309252155989741870000000005897639338748092_)"
   id="g1283">
										<path
   class="st32"
   d="m 891.1,239.9 12.3,21.2 c -5.4,-2.2 -11.3,-3.4 -17.6,-3.7 l -12.3,-21.2 c 6.2,0.4 12.2,1.6 17.6,3.7"
   id="path1281" />
									</g>
								</g>
							</g>
						</g>
						<g
   id="g1293">
							<path
   class="st2"
   d="m 882.5,211.8 c 0.8,0 1.6,0 2.4,0.1 9.7,0.5 17.4,2.2 25.4,5.4 L 891,240 c -5.4,-2.2 -11.3,-3.4 -17.6,-3.7 l 11.4,-24.4 c -0.7,-0.1 -1.5,-0.1 -2.3,-0.1 z"
   id="path1291" />
						</g>
						<g
   id="g1297">
							<polygon
   class="st33"
   points="903.3,261.2 891.1,239.9 910.3,217.2 922.6,238.5 "
   id="polygon1295" />
						</g>
						<g
   class="st11"
   id="g1313">
							<g
   id="g1311">
								<g
   id="g1309">
									<defs
   id="defs1300">
										<path
   id="SVGID_00000152986026932131026540000006717393121145613469_"
   d="m 909.3,255.1 12.3,21.2 c -3.8,-6.5 -9.9,-11.8 -18.3,-15.2 L 891.1,240 c 8.4,3.3 14.5,8.6 18.2,15.1 z" />
									</defs>
									<clipPath
   id="SVGID_00000023976788630200425710000007774324021885703824_">
										<use
   xlink:href="#SVGID_00000152986026932131026540000006717393121145613469_"
   style="overflow:visible"
   id="use1302"
   x="0"
   y="0"
   width="100%"
   height="100%" />
									</clipPath>
									<g
   clip-path="url(#SVGID_00000023976788630200425710000007774324021885703824_)"
   id="g1307">
										<path
   class="st35"
   d="m 909.3,255.1 12.3,21.2 c -3.8,-6.5 -9.9,-11.8 -18.3,-15.2 L 891.1,240 c 8.4,3.3 14.5,8.6 18.2,15.1"
   id="path1305" />
									</g>
								</g>
							</g>
						</g>
						<path
   class="st36"
   d="m 824.7,278.1 c 0,0 0.1,-0.1 0.1,-0.1 1.2,-0.9 2.3,-1.7 3.5,-2.6 0.3,-0.2 0.6,-0.4 0.9,-0.6 0.6,-0.4 1.3,-0.9 1.9,-1.3 1,-0.6 1.9,-1.3 2.9,-1.8 0.6,-0.4 1.2,-0.7 1.8,-1.1 1,-0.6 2,-1.1 3,-1.7 0.6,-0.3 1.2,-0.6 1.7,-0.9 1.2,-0.6 2.4,-1.2 3.7,-1.8 0.4,-0.2 0.8,-0.4 1.2,-0.6 1.6,-0.7 3.3,-1.4 5,-2.1 1.3,-0.5 2.6,-1 3.9,-1.4 0.3,-0.1 0.7,-0.2 1,-0.3 1.1,-0.4 2.1,-0.7 3.2,-1 0.3,-0.1 0.7,-0.2 1,-0.3 1.3,-0.4 2.7,-0.7 4,-1 0.2,0 0.3,-0.1 0.5,-0.1 1.2,-0.3 2.4,-0.5 3.6,-0.7 0.3,0 0.5,-0.1 0.8,-0.1 1.3,-0.2 2.6,-0.4 3.9,-0.6 0.3,0 0.5,-0.1 0.8,-0.1 1.2,-0.1 2.4,-0.3 3.5,-0.3 0.2,0 0.4,0 0.6,0 1.3,-0.1 2.6,-0.1 3.8,-0.1 0.3,0 0.6,0 0.9,0 1.3,0 2.6,0 3.8,0.1 l -12.3,-21.2 c -1.3,-0.1 -2.5,-0.1 -3.8,-0.1 -0.3,0 -0.6,0 -0.9,0 -1.3,0 -2.5,0.1 -3.8,0.1 -0.2,0 -0.4,0 -0.6,0.1 -1.2,0.1 -2.3,0.2 -3.5,0.3 -0.3,0 -0.5,0.1 -0.8,0.1 -1.3,0.2 -2.6,0.4 -3.9,0.6 -0.3,0 -0.5,0.1 -0.8,0.1 -1.2,0.2 -2.4,0.4 -3.6,0.7 -0.2,0 -0.4,0.1 -0.6,0.1 -0.1,0 -0.2,0 -0.2,0 -1.3,0.3 -2.5,0.6 -3.8,1 -0.4,0.1 -0.7,0.2 -1,0.3 -1,0.3 -2.1,0.6 -3.2,1 -0.3,0.1 -0.7,0.2 -1,0.3 -1.2,0.4 -2.5,0.9 -3.7,1.3 -0.1,0 -0.1,0 -0.2,0.1 -1.7,0.7 -3.3,1.3 -4.9,2.1 -0.4,0.2 -0.8,0.4 -1.3,0.6 -1.2,0.6 -2.4,1.2 -3.6,1.8 -0.2,0.1 -0.4,0.2 -0.6,0.3 -0.4,0.2 -0.7,0.4 -1.1,0.6 -1,0.5 -2,1.1 -3,1.7 -0.6,0.4 -1.2,0.7 -1.8,1.1 -1,0.6 -2,1.2 -2.9,1.8 -0.4,0.2 -0.7,0.4 -1.1,0.7 -0.3,0.2 -0.6,0.4 -0.8,0.6 -0.3,0.2 -0.6,0.4 -0.8,0.6 -1.2,0.8 -2.4,1.7 -3.5,2.6 0,0 0,0 -0.1,0.1 -1.2,0.9 -2.3,1.8 -3.4,2.7 -0.2,0.2 -0.5,0.4 -0.7,0.6 -0.2,0.2 -0.5,0.4 -0.7,0.6 -0.9,0.8 -1.8,1.6 -2.6,2.4 -2.5,2.4 -4.9,4.9 -7.2,7.5 -1,1.2 -2.1,2.5 -3,3.7 0,0 0,0 -0.1,0.1 -0.8,1.1 -1.6,2.1 -2.3,3.2 -0.2,0.3 -0.4,0.5 -0.5,0.7 -0.7,1.1 -1.4,2.2 -2.1,3.3 0,0.1 -0.1,0.1 -0.1,0.2 -0.6,1 -1.2,2.1 -1.7,3.2 -0.1,0.2 -0.3,0.5 -0.4,0.7 -0.6,1.1 -1.1,2.2 -1.5,3.3 -0.1,0.1 -0.1,0.3 -0.2,0.5 -0.4,1 -0.8,2 -1.2,2.9 -0.1,0.2 -0.2,0.5 -0.2,0.7 -0.1,0.2 -0.1,0.3 -0.2,0.5 -0.2,0.5 -0.3,0.9 -0.4,1.4 -0.2,0.7 -0.4,1.3 -0.6,2 -0.1,0.6 -0.3,1.1 -0.4,1.7 -0.1,0.7 -0.3,1.3 -0.4,2 -0.1,0.6 -0.2,1.1 -0.3,1.7 -0.1,0.7 -0.2,1.3 -0.3,1.9 -0.1,0.6 -0.1,1.1 -0.1,1.7 0,0.6 -0.1,1.3 -0.1,1.9 0,0.2 0,0.4 0,0.6 0,0.7 0,1.4 0,2.1 0,0.1 0,0.1 0,0.2 0.1,1 0.2,2 0.3,3 0,0.3 0.1,0.5 0.1,0.7 0.1,0.8 0.3,1.7 0.5,2.5 0,0.1 0.1,0.3 0.1,0.4 0,0.1 0,0.1 0,0.2 0.2,0.9 0.5,1.7 0.7,2.6 0.1,0.2 0.1,0.4 0.2,0.6 0.3,0.9 0.7,1.8 1,2.6 0,0.1 0.1,0.2 0.1,0.3 0.2,0.4 0.4,0.9 0.6,1.3 0.2,0.4 0.5,0.9 0.7,1.3 l 12.3,21.2 c -0.5,-0.9 -1,-1.8 -1.4,-2.7 0,-0.1 -0.1,-0.2 -0.1,-0.3 -0.4,-0.9 -0.7,-1.8 -1,-2.6 -0.1,-0.2 -0.1,-0.4 -0.2,-0.6 -0.3,-0.9 -0.6,-1.8 -0.8,-2.7 0,-0.2 -0.1,-0.3 -0.1,-0.5 -0.2,-0.8 -0.3,-1.6 -0.5,-2.5 0,-0.3 -0.1,-0.5 -0.1,-0.8 -0.1,-1 -0.2,-2 -0.3,-3 0,-0.1 0,-0.1 0,-0.2 0,-0.9 0,-1.8 0,-2.7 0,-0.6 0,-1.3 0.1,-1.9 0,-0.6 0.1,-1.1 0.1,-1.7 0.1,-0.6 0.2,-1.3 0.3,-1.9 0.1,-0.6 0.1,-1.1 0.3,-1.7 0.1,-0.7 0.3,-1.3 0.4,-2 0.1,-0.6 0.3,-1.1 0.4,-1.7 0.2,-0.7 0.4,-1.3 0.6,-2 0.2,-0.6 0.4,-1.2 0.6,-1.9 0.1,-0.2 0.2,-0.4 0.2,-0.7 0.4,-1 0.7,-2 1.2,-3 0.1,-0.1 0.1,-0.3 0.2,-0.5 0.5,-1.1 1,-2.2 1.5,-3.3 0.1,-0.2 0.3,-0.5 0.4,-0.7 0.5,-1 1.1,-2.1 1.7,-3.2 0,-0.1 0.1,-0.1 0.1,-0.2 0.7,-1.1 1.4,-2.2 2.1,-3.3 0.2,-0.3 0.3,-0.5 0.5,-0.7 0.7,-1.1 1.5,-2.2 2.4,-3.3 0.9,-1.3 1.9,-2.5 3,-3.7 2.2,-2.6 4.6,-5.2 7.2,-7.5 1.1,-1 2.2,-2 3.3,-3 0.3,-0.2 0.5,-0.4 0.8,-0.7 1.2,-0.6 2.3,-1.5 3.4,-2.4 z"
   id="path1315" />
						<g
   class="st11"
   id="g1337">
							<g
   id="g1335">
								<g
   id="g1333">
									<defs
   id="defs1318">
										<path
   id="SVGID_00000023998857321429051250000007003899309490213283_"
   d="m 766.7,321.6 c -4,15.5 -2.5,30.1 4.4,41.9 l -12.3,-21.2 c -6.8,-11.8 -8.3,-26.3 -4.4,-41.7 1.5,2.6 3,5.2 4.6,7.8 0.5,0.8 1.1,1.9 1.6,2.7 0.2,0.4 0.6,1 0.8,1.4 1.1,1.8 2.1,3.6 3.2,5.4 0.2,0.4 0.5,0.9 0.8,1.3 0.3,0.7 1.2,1.6 1.3,2.4 z" />
									</defs>
									<clipPath
   id="SVGID_00000036936068900677482750000001687794593519946136_">
										<use
   xlink:href="#SVGID_00000023998857321429051250000007003899309490213283_"
   style="overflow:visible"
   id="use1320"
   x="0"
   y="0"
   width="100%"
   height="100%" />
									</clipPath>
									<g
   style="enable-background:new"
   clip-path="url(#SVGID_00000036936068900677482750000001687794593519946136_)"
   id="g1331">
										<path
   class="st25"
   d="m 754.5,300.4 12.3,21.2 c -1.4,5.5 -2.1,10.9 -2.2,16.1 l -12.3,-21.2 c 0,-5.2 0.7,-10.6 2.2,-16.1"
   id="path1323" />
										<path
   class="st38"
   d="m 752.3,316.5 12.3,21.2 c 0,4.6 0.5,9 1.5,13.2 l -12.3,-21.2 c -1.1,-4.2 -1.6,-8.6 -1.5,-13.2"
   id="path1325" />
										<path
   class="st39"
   d="m 753.8,329.8 12.3,21.2 c 0.9,3.8 2.3,7.3 4,10.7 l -12.3,-21.2 c -1.8,-3.4 -3.1,-7 -4,-10.7"
   id="path1327" />
										<path
   class="st40"
   d="m 757.8,340.5 12.3,21.2 c 0.3,0.6 0.7,1.3 1,1.9 l -12.3,-21.2 c -0.3,-0.7 -0.7,-1.3 -1,-1.9"
   id="path1329" />
									</g>
								</g>
							</g>
						</g>
						<g
   id="g1341">
							<path
   class="st41"
   d="m 786.4,250.4 c 23.9,-22.5 55.5,-36.6 85.9,-38.4 0.5,0 1,-0.1 1.6,-0.1 0.9,0 1.8,-0.1 2.7,-0.1 0.7,0 1.3,0 1.9,0 1.3,0 2.6,0 3.9,0 0.8,0 1.6,0 2.4,0.1 l -11.4,24.4 c -22.7,-1.3 -49.3,9 -68.5,26.9 -2.5,2.4 -4.9,4.9 -7.2,7.5 -23.9,28.1 -20.9,59.9 6.8,71 11,4.4 24.2,4.8 37.6,2.1 l -2.5,23.7 c -19.4,4 -38.6,3.3 -54.4,-3 -1.8,-0.7 -3.4,-1.5 -5,-2.3 -0.4,-0.2 -0.8,-0.4 -1.2,-0.6 -1.2,-0.7 -2.4,-1.3 -3.5,-2 -0.6,-0.4 -1.2,-0.8 -1.8,-1.2 -0.6,-0.4 -1.1,-0.8 -1.7,-1.2 -17.4,-12.9 -23.5,-33.9 -17.6,-56.6 0.1,-0.6 0.3,-1 0.4,-1.5 0.1,-0.5 0.3,-0.9 0.4,-1.4 2.3,-7.7 6,-15.6 11.1,-23.5 0.7,-1.1 1.3,-2 2,-2.9 0.4,-0.6 0.7,-1 0.9,-1.3 0.4,-0.6 0.8,-1.1 1.2,-1.6 0.6,-0.8 1.2,-1.6 1.8,-2.4 0.2,-0.3 0.5,-0.6 0.7,-0.9 0.8,-1 1.6,-2 2.4,-3 1.9,-2.2 3.4,-3.9 5,-5.6 0.2,-0.2 0.4,-0.5 0.7,-0.7 0.6,-0.7 1.3,-1.3 1.9,-2 0.7,-0.6 1.3,-1.3 2,-1.9 0.6,-0.7 1.1,-1.1 1.5,-1.5 z"
   id="path1339" />
						</g>
						<g
   id="g1345">
							<polygon
   class="st42"
   points="925.9,298.4 913.6,277.2 943.1,271.1 955.3,292.3 "
   id="polygon1343" />
						</g>
						<g
   class="st11"
   id="g1361">
							<g
   id="g1359">
								<g
   id="g1357">
									<defs
   id="defs1348">
										<path
   id="SVGID_00000044174975930496219680000007778929659237915298_"
   d="m 955.7,287.7 c 0,1.5 -0.1,3.1 -0.3,4.6 -4.1,-7.1 -8.2,-14.2 -12.3,-21.2 0.2,-1.6 0.3,-3.1 0.3,-4.6 3.7,6.3 10.5,14.1 12.3,21.2 z" />
									</defs>
									<clipPath
   id="SVGID_00000044900224703532596450000015062922440166465159_">
										<use
   xlink:href="#SVGID_00000044174975930496219680000007778929659237915298_"
   style="overflow:visible"
   id="use1350"
   x="0"
   y="0"
   width="100%"
   height="100%" />
									</clipPath>
									<g
   style="enable-background:new"
   clip-path="url(#SVGID_00000044900224703532596450000015062922440166465159_)"
   id="g1355">
										<path
   class="st44"
   d="m 943.4,266.5 12.3,21.2 c -0.2,6.4 -1.4,13.1 -3.7,20 l -12.3,-21.3 c 2.3,-6.8 3.5,-13.5 3.7,-19.9"
   id="path1353" />
									</g>
								</g>
							</g>
						</g>
						<g
   class="st11"
   id="g1377">
							<g
   id="g1375">
								<g
   id="g1373">
									<defs
   id="defs1364">
										<path
   id="SVGID_00000016048513511249776500000003173496221666557352_"
   d="m 955.7,287.7 c 0,1.5 -0.1,3.1 -0.3,4.6 -4.1,-7.1 -8.2,-14.2 -12.3,-21.2 0.2,-1.6 0.3,-3.1 0.3,-4.6 3.7,6.3 10.5,14.1 12.3,21.2 z" />
									</defs>
									<clipPath
   id="SVGID_00000166654684514778898460000011035052889992541864_">
										<use
   xlink:href="#SVGID_00000016048513511249776500000003173496221666557352_"
   style="overflow:visible"
   id="use1366"
   x="0"
   y="0"
   width="100%"
   height="100%" />
									</clipPath>
									<g
   style="enable-background:new"
   clip-path="url(#SVGID_00000166654684514778898460000011035052889992541864_)"
   id="g1371">
										<path
   class="st46"
   d="m 943.4,266.5 12.3,21.2 c -0.2,6.4 -1.4,13.1 -3.7,20 l -12.3,-21.3 c 2.3,-6.8 3.5,-13.5 3.7,-19.9"
   id="path1369" />
									</g>
								</g>
							</g>
						</g>
						<g
   class="st11"
   id="g1402">
							<g
   id="g1380">
								<path
   id="SVGID_37_"
   class="st35"
   d="m 937.2,239.1 12.3,21.2 c 4.5,7.8 6.6,17 6.2,27.4 0,1.5 -0.2,3.1 -0.3,4.6 l -12.3,-21.2 c 0.2,-1.6 0.3,-3.1 0.3,-4.6 0.4,-10.4 -1.7,-19.6 -6.2,-27.4 z" />
							</g>
							<g
   id="g1400">
								<g
   id="g1398">
									<defs
   id="defs1383">
										<path
   id="SVGID_00000122695231160725816600000013689416401873900200_"
   d="m 937.2,239.1 12.3,21.2 c 4.5,7.8 6.6,17 6.2,27.4 0,1.5 -0.2,3.1 -0.3,4.6 l -12.3,-21.2 c 0.2,-1.6 0.3,-3.1 0.3,-4.6 0.4,-10.4 -1.7,-19.6 -6.2,-27.4 z" />
									</defs>
									<clipPath
   id="SVGID_00000101819904529868200570000001524737316970585729_">
										<use
   xlink:href="#SVGID_00000122695231160725816600000013689416401873900200_"
   style="overflow:visible"
   id="use1385"
   x="0"
   y="0"
   width="100%"
   height="100%" />
									</clipPath>
									<g
   style="enable-background:new"
   clip-path="url(#SVGID_00000101819904529868200570000001524737316970585729_)"
   id="g1396">
										<path
   class="st48"
   d="m 937.2,239.1 12.3,21.2 c 0.3,0.6 0.7,1.2 1,1.8 l -12.3,-21.3 c -0.4,-0.5 -0.7,-1.1 -1,-1.7"
   id="path1388" />
										<path
   class="st35"
   d="m 938.1,240.9 12.3,21.3 c 1.6,3.2 2.9,6.6 3.8,10.2 L 941.9,251 c -0.8,-3.6 -2.1,-7 -3.8,-10.1"
   id="path1390" />
										<path
   class="st35"
   d="m 941.9,251 12.3,21.2 c 1,4.2 1.5,8.7 1.5,13.4 l -12.3,-21.2 c 0.1,-4.7 -0.4,-9.1 -1.5,-13.4"
   id="path1392" />
										<path
   class="st35"
   d="m 943.4,264.5 12.3,21.2 c 0,0.7 0,1.3 0,2 0,1.5 -0.2,3.1 -0.3,4.6 l -12.3,-21.2 c 0.2,-1.6 0.3,-3.1 0.3,-4.6 0,-0.7 0,-1.4 0,-2"
   id="path1394" />
									</g>
								</g>
							</g>
						</g>
						<g
   id="g1406">
							<polygon
   class="st49"
   points="910.1,332.2 897.8,310.9 920.1,319.9 932.4,341.2 "
   id="polygon1404" />
						</g>
						<g
   class="st11"
   id="g1422">
							<g
   id="g1420">
								<g
   id="g1418">
									<defs
   id="defs1409">
										<path
   id="SVGID_00000143577563045460903440000014066016202621960598_"
   d="m 920.1,319.9 12.3,21.2 c -1.1,1.3 -2.3,2.6 -3.5,3.9 l -12.3,-21.2 c 1.2,-1.2 2.4,-2.6 3.5,-3.9 z" />
									</defs>
									<clipPath
   id="SVGID_00000056408608769095857070000009324935530875701665_">
										<use
   xlink:href="#SVGID_00000143577563045460903440000014066016202621960598_"
   style="overflow:visible"
   id="use1411"
   x="0"
   y="0"
   width="100%"
   height="100%" />
									</clipPath>
									<g
   style="enable-background:new"
   clip-path="url(#SVGID_00000056408608769095857070000009324935530875701665_)"
   id="g1416">
										<path
   class="st51"
   d="m 920.1,319.9 12.3,21.2 c -1.1,1.3 -2.3,2.6 -3.5,3.9 l -12.3,-21.2 c 1.2,-1.2 2.4,-2.6 3.5,-3.9"
   id="path1414" />
									</g>
								</g>
							</g>
						</g>
						<g
   class="st11"
   id="g1440">
							<g
   id="g1438">
								<g
   id="g1436">
									<defs
   id="defs1425">
										<path
   id="SVGID_00000156587205428494827930000003698705811580723074_"
   d="m 932.4,341.1 c -1.2,1.4 -2.4,2.8 -3.6,4.1 L 916.5,324 c 1.2,-1.3 2.5,-2.7 3.6,-4.1 13.7,-16.2 21.3,-33.2 22.9,-48.8 4.1,7.1 8.2,14.2 12.3,21.2 -1.6,15.7 -9.1,32.7 -22.9,48.8 z" />
									</defs>
									<clipPath
   id="SVGID_00000000195289174602746510000013847293011192116866_">
										<use
   xlink:href="#SVGID_00000156587205428494827930000003698705811580723074_"
   style="overflow:visible"
   id="use1427"
   x="0"
   y="0"
   width="100%"
   height="100%" />
									</clipPath>
									<g
   style="enable-background:new"
   clip-path="url(#SVGID_00000000195289174602746510000013847293011192116866_)"
   id="g1434">
										<path
   class="st53"
   d="m 943.4,266.5 12.3,21.2 c -0.2,6.4 -1.4,13.1 -3.7,20 l -12.3,-21.3 c 2.3,-6.8 3.5,-13.5 3.7,-19.9"
   id="path1430" />
										<path
   class="st54"
   d="m 939.7,286.4 12.3,21.3 c -3.1,9.3 -8.2,18.8 -15.2,28.1 l -12.3,-21.2 c 7,-9.4 12.1,-18.9 15.2,-28.2"
   id="path1432" />
									</g>
								</g>
							</g>
						</g>
						<g
   id="g1461">
							<g
   id="g1443">
								<path
   id="SVGID_43_"
   class="st55"
   d="m 932.9,340.8 c -1.2,1.4 -2.4,2.7 -3.6,4.1 L 917,323.6 c 1.2,-1.3 2.4,-2.7 3.6,-4.1 13.5,-16 21,-32.9 22.5,-48.4 4.1,7.1 8.2,14.1 12.3,21.2 -1.5,15.6 -8.9,32.5 -22.5,48.5 z" />
							</g>
							<g
   id="g1459">
								<g
   id="g1457">
									<defs
   id="defs1446">
										<path
   id="SVGID_00000106863913548044017070000014796319258096680382_"
   d="m 932.9,340.8 c -1.2,1.4 -2.4,2.7 -3.6,4.1 L 917,323.6 c 1.2,-1.3 2.4,-2.7 3.6,-4.1 13.5,-16 21,-32.9 22.5,-48.4 4.1,7.1 8.2,14.1 12.3,21.2 -1.5,15.6 -8.9,32.5 -22.5,48.5 z" />
									</defs>
									<clipPath
   id="SVGID_00000092430684376277329080000015219818021794076095_">
										<use
   xlink:href="#SVGID_00000106863913548044017070000014796319258096680382_"
   style="overflow:visible"
   id="use1448"
   x="0"
   y="0"
   width="100%"
   height="100%" />
									</clipPath>
									<g
   style="enable-background:new"
   clip-path="url(#SVGID_00000092430684376277329080000015219818021794076095_)"
   id="g1455">
										<path
   class="st55"
   d="m 943.4,266.5 12.3,21.2 c -0.1,6.4 -1.3,13.1 -3.5,19.9 l -12.3,-21.2 c 2.1,-6.8 3.3,-13.5 3.5,-19.9"
   id="path1451" />
										<path
   class="st55"
   d="m 939.8,286.3 12.3,21.2 c -3,9.2 -8,18.7 -15,27.9 l -12.3,-21.2 c 7,-9.2 12,-18.6 15,-27.9"
   id="path1453" />
									</g>
								</g>
							</g>
						</g>
						<g
   id="g1465">
							<path
   class="st57"
   d="m 913.6,277.2 29.4,-6.1 c 0.2,-1.6 0.3,-3.1 0.3,-4.6 -0.5,16.9 -8.1,35.7 -23.2,53.4 -1.2,1.4 -2.4,2.8 -3.6,4.1 l 0.1,-0.2 c 1.2,-1.3 2.3,-2.6 3.5,-3.9 l -22.3,-9 c 9.5,-11.1 14.7,-22.9 15.8,-33.7 z"
   id="path1463" />
						</g>
						<g
   id="g1469">
							<path
   class="st58"
   d="m 910.3,217.2 c 1.3,0.5 2.6,1.1 3.8,1.7 19.9,9.4 30.1,25.8 29.2,47.5 -0.1,1.5 -0.2,3.1 -0.3,4.6 l -29.4,6.1 c 1.7,-16.4 -5.9,-30.6 -22.6,-37.3 z"
   id="path1467" />
						</g>
						<g
   id="g1473">
							<path
   class="st59"
   d="m 852.1,388.7 c 1.8,-0.4 3.7,-0.8 5.6,-1.3 -1.9,0.5 -3.8,0.9 -5.6,1.3 z"
   id="path1471" />
						</g>
						<g
   id="g1502">
							<g
   id="g1476">
								<path
   id="SVGID_45_"
   class="st60"
   d="m 921.1,352.4 c 0.2,-0.2 0.5,-0.6 0.8,-0.8 0,0 3.4,-3.5 3.6,-3.8 0.6,-0.5 1.7,-1.6 3,-3 l 0.3,0.5 c -0.9,1 -1.8,1.9 -2.8,2.9 -0.1,0.1 -0.3,0.3 -0.4,0.5 -1.4,1.4 -2.8,2.8 -4.3,4.2 -17.8,16.7 -39.6,28.6 -63.7,34.6 -1.8,0.4 -3.7,0.9 -5.6,1.3 0.6,-0.1 2.3,-0.5 4.1,-1 2.1,-0.6 10.7,-3.1 10.8,-3.1 2.8,-0.8 6.3,-2.2 9,-3.3 5.3,-2 12,-5.5 17,-8.1 4.8,-2.5 10.8,-6.6 15.1,-9.8 4.1,-3.1 9.4,-7.5 13.1,-11.1 z" />
							</g>
							<g
   id="g1500">
								<g
   id="g1498">
									<defs
   id="defs1479">
										<path
   id="SVGID_00000079471035680970414900000010063176335952137398_"
   d="m 921.1,352.4 c 0.2,-0.2 0.5,-0.6 0.8,-0.8 0,0 3.4,-3.5 3.6,-3.8 0.6,-0.5 1.7,-1.6 3,-3 l 0.3,0.5 c -0.9,1 -1.8,1.9 -2.8,2.9 -0.1,0.1 -0.3,0.3 -0.4,0.5 -1.4,1.4 -2.8,2.8 -4.3,4.2 -17.8,16.7 -39.6,28.6 -63.7,34.6 -1.8,0.4 -3.7,0.9 -5.6,1.3 0.6,-0.1 2.3,-0.5 4.1,-1 2.1,-0.6 10.7,-3.1 10.8,-3.1 2.8,-0.8 6.3,-2.2 9,-3.3 5.3,-2 12,-5.5 17,-8.1 4.8,-2.5 10.8,-6.6 15.1,-9.8 4.1,-3.1 9.4,-7.5 13.1,-11.1 z" />
									</defs>
									<clipPath
   id="SVGID_00000092427698725813586320000000571138630928863652_">
										<use
   xlink:href="#SVGID_00000079471035680970414900000010063176335952137398_"
   style="overflow:visible"
   id="use1481"
   x="0"
   y="0"
   width="100%"
   height="100%" />
									</clipPath>
									<g
   style="enable-background:new"
   clip-path="url(#SVGID_00000092427698725813586320000000571138630928863652_)"
   id="g1496">
										<path
   class="st60"
   d="m 916.5,324 12.3,21.2 c -0.9,1 -1.8,1.9 -2.8,2.9 -0.1,0.1 -0.3,0.3 -0.4,0.5 -1.4,1.4 -2.8,2.8 -4.3,4.2 -1.3,1.2 -2.6,2.4 -3.9,3.5 l -12.3,-21.2 c 1.3,-1.1 2.6,-2.3 3.9,-3.5 1.5,-1.4 2.9,-2.8 4.3,-4.2 0.1,-0.1 0.3,-0.3 0.4,-0.5 1,-1 1.9,-1.9 2.8,-2.9"
   id="path1484" />
										<path
   class="st60"
   d="m 905.1,335.1 12.3,21.2 c -4.5,3.9 -9.3,7.6 -14.2,10.9 L 890.9,346 c 5,-3.3 9.7,-7 14.2,-10.9"
   id="path1486" />
										<path
   class="st60"
   d="m 890.9,346 12.3,21.2 c -4.4,2.9 -8.9,5.6 -13.5,8 L 877.4,354 c 4.6,-2.4 9.1,-5.1 13.5,-8"
   id="path1488" />
										<path
   class="st60"
   d="m 877.4,354.1 12.3,21.2 c -4.8,2.5 -9.7,4.7 -14.7,6.7 l -12.3,-21.2 c 5,-2 9.9,-4.3 14.7,-6.7"
   id="path1490" />
										<path
   class="st60"
   d="m 862.6,360.7 12.3,21.2 c -5.6,2.2 -11.4,4 -17.3,5.5 -0.6,0.1 -1.1,0.3 -1.7,0.4 l -12.3,-21.2 c 0.6,-0.1 1.1,-0.3 1.7,-0.4 6,-1.5 11.7,-3.3 17.3,-5.5"
   id="path1492" />
										<path
   class="st60"
   d="m 843.7,366.6 12.3,21.2 c -1.3,0.3 -2.6,0.6 -3.9,0.9 l -12.3,-21.2 c 1.3,-0.3 2.6,-0.6 3.9,-0.9"
   id="path1494" />
									</g>
								</g>
							</g>
						</g>
						<g
   id="g1506">
							<polygon
   class="st62"
   points="852,388.7 839.8,367.4 842.3,343.8 854.5,365 "
   id="polygon1504" />
						</g>
						<path
   class="st63"
   d="m 785.3,364.4 c -1.8,-0.7 -3.4,-1.5 -5,-2.3 -0.4,-0.2 -0.8,-0.4 -1.2,-0.6 -1.2,-0.7 -2.4,-1.3 -3.5,-2 -0.6,-0.4 -1.2,-0.8 -1.8,-1.2 -0.6,-0.4 -1.1,-0.8 -1.7,-1.2 v 0 c 0,0 0,0 0,0 -0.3,-0.2 -0.6,-0.4 -0.9,-0.7 -5.2,-4 -9.3,-8.7 -12.4,-14 0.7,1.2 1.4,2.4 2.1,3.6 -0.3,-0.4 -0.5,-0.8 -0.8,-1.1 -0.1,-0.2 -0.3,-0.4 -0.4,-0.7 -0.4,-0.6 -0.8,-1.3 -1.2,-1.9 0,-0.1 -0.1,-0.1 -0.1,-0.2 v 0 0 l 12.3,21.2 c 0,0.1 0.1,0.1 0.1,0.2 0.4,0.6 0.7,1.3 1.1,1.9 0.2,0.3 0.4,0.5 0.5,0.8 0.3,0.4 0.6,0.8 0.9,1.2 0.2,0.3 0.4,0.6 0.6,0.8 0.3,0.4 0.6,0.7 0.9,1.1 0.2,0.3 0.5,0.6 0.7,0.8 0.3,0.4 0.6,0.7 0.9,1 0.3,0.3 0.5,0.5 0.8,0.8 0.3,0.3 0.6,0.7 1,1 0.3,0.3 0.6,0.5 0.8,0.8 0.3,0.3 0.7,0.6 1,0.9 0.3,0.3 0.6,0.5 0.9,0.8 0.4,0.3 0.7,0.6 1,0.9 0.3,0.3 0.6,0.5 1,0.7 0.3,0.2 0.5,0.4 0.8,0.6 0.1,0.1 0.2,0.2 0.3,0.2 0.1,0.1 0.2,0.1 0.3,0.2 0.6,0.4 1.1,0.8 1.7,1.2 0.6,0.4 1.2,0.8 1.8,1.2 1.1,0.7 2.3,1.4 3.5,2 0.4,0.2 0.8,0.4 1.2,0.6 1.6,0.8 3.3,1.6 5,2.3 15.9,6.4 35,7.1 54.4,3 l -12.3,-21.2 c -19.3,4.4 -38.4,3.7 -54.3,-2.7 z"
   id="path1508" />
						<g
   class="st11"
   id="g1524">
							<g
   id="g1522">
								<g
   id="g1520">
									<defs
   id="defs1511">
										<path
   id="SVGID_00000099622291620142922400000010288715524776104322_"
   d="m 913.8,326.9 12.3,21.2 c -0.1,0.1 -0.3,0.3 -0.4,0.5 l -12.3,-21.2 c 0.1,-0.2 0.2,-0.4 0.4,-0.5 z" />
									</defs>
									<clipPath
   id="SVGID_00000078755001811712420590000005755960653257611699_">
										<use
   xlink:href="#SVGID_00000099622291620142922400000010288715524776104322_"
   style="overflow:visible"
   id="use1513"
   x="0"
   y="0"
   width="100%"
   height="100%" />
									</clipPath>
									<g
   style="enable-background:new"
   clip-path="url(#SVGID_00000078755001811712420590000005755960653257611699_)"
   id="g1518">
										<path
   class="st25"
   d="m 913.8,326.9 12.3,21.2 c -0.1,0.1 -0.3,0.3 -0.4,0.5 l -12.3,-21.2 c 0.1,-0.2 0.2,-0.4 0.4,-0.5"
   id="path1516" />
									</g>
								</g>
							</g>
						</g>
						<g
   class="st11"
   id="g1540">
							<g
   id="g1538">
								<g
   id="g1536">
									<defs
   id="defs1527">
										<path
   id="SVGID_00000042699813820400838970000005789111975287855541_"
   d="m 913.8,326.9 12.3,21.2 c -0.1,0.1 -0.3,0.3 -0.4,0.5 l -12.3,-21.2 c 0.1,-0.2 0.2,-0.4 0.4,-0.5 z" />
									</defs>
									<clipPath
   id="SVGID_00000131331150374953868110000005226179453371455622_">
										<use
   xlink:href="#SVGID_00000042699813820400838970000005789111975287855541_"
   style="overflow:visible"
   id="use1529"
   x="0"
   y="0"
   width="100%"
   height="100%" />
									</clipPath>
									<g
   clip-path="url(#SVGID_00000131331150374953868110000005226179453371455622_)"
   id="g1534">
										<path
   class="st66"
   d="m 913.8,326.9 12.3,21.2 c -0.1,0.1 -0.3,0.3 -0.4,0.5 l -12.3,-21.2 c 0.1,-0.2 0.2,-0.4 0.4,-0.5"
   id="path1532" />
									</g>
								</g>
							</g>
						</g>
						<g
   id="g1569">
							<g
   id="g1543">
								<path
   id="SVGID_51_"
   class="st67"
   d="m 921.6,352.2 c -3.7,3.6 -9,8 -13.2,11.1 -4.4,3.2 -10.4,7.4 -15.3,9.9 -5,2.6 -11.8,6.2 -17.1,8.2 -2.7,1 -6.3,2.4 -9.1,3.3 0,0 -8.8,2.5 -10.8,3.1 -1.8,0.5 -3.5,0.9 -4.1,1 l -12.3,-21.3 c 1.9,-0.4 3.7,-0.8 5.6,-1.3 24.2,-6 46.2,-18 64.1,-34.9 1.5,-1.4 2.9,-2.8 4.3,-4.3 0.1,-0.2 0.3,-0.3 0.4,-0.5 0.9,-1 1.9,-1.9 2.8,-2.9 3.6,6.3 8.4,14.6 12.1,20.9 -1.4,1.5 -2.5,2.6 -3,3.1 -0.3,0.2 -3.6,3.8 -3.7,3.8 -0.2,0.2 -0.5,0.5 -0.7,0.8 z" />
							</g>
							<g
   id="g1567">
								<g
   id="g1565">
									<defs
   id="defs1546">
										<path
   id="SVGID_00000046302347447503539310000003678170815637169544_"
   d="m 921.6,352.2 c -3.7,3.6 -9,8 -13.2,11.1 -4.4,3.2 -10.4,7.4 -15.3,9.9 -5,2.6 -11.8,6.2 -17.1,8.2 -2.7,1 -6.3,2.4 -9.1,3.3 0,0 -8.8,2.5 -10.8,3.1 -1.8,0.5 -3.5,0.9 -4.1,1 l -12.3,-21.3 c 1.9,-0.4 3.7,-0.8 5.6,-1.3 24.2,-6 46.2,-18 64.1,-34.9 1.5,-1.4 2.9,-2.8 4.3,-4.3 0.1,-0.2 0.3,-0.3 0.4,-0.5 0.9,-1 1.9,-1.9 2.8,-2.9 3.6,6.3 8.4,14.6 12.1,20.9 -1.4,1.5 -2.5,2.6 -3,3.1 -0.3,0.2 -3.6,3.8 -3.7,3.8 -0.2,0.2 -0.5,0.5 -0.7,0.8 z" />
									</defs>
									<clipPath
   id="SVGID_00000114051192605981940780000001573603804527843759_">
										<use
   xlink:href="#SVGID_00000046302347447503539310000003678170815637169544_"
   style="overflow:visible"
   id="use1548"
   x="0"
   y="0"
   width="100%"
   height="100%" />
									</clipPath>
									<g
   style="enable-background:new"
   clip-path="url(#SVGID_00000114051192605981940780000001573603804527843759_)"
   id="g1563">
										<path
   class="st67"
   d="m 917,323.6 12.3,21.3 c -0.9,1 -1.8,2 -2.8,2.9 -0.1,0.2 -0.3,0.3 -0.4,0.5 -1.4,1.4 -2.9,2.9 -4.3,4.2 -1.3,1.2 -2.6,2.4 -3.9,3.5 l -12.3,-21.4 c 1.3,-1.1 2.6,-2.3 3.9,-3.5 1.5,-1.4 2.9,-2.8 4.3,-4.3 0.1,-0.2 0.3,-0.3 0.4,-0.5 1,-0.8 1.9,-1.7 2.8,-2.7"
   id="path1551" />
										<path
   class="st67"
   d="m 905.6,334.7 12.3,21.3 c -4.6,4 -9.4,7.7 -14.4,11 l -12.3,-21.3 c 5,-3.3 9.8,-7 14.4,-11"
   id="path1553" />
										<path
   class="st67"
   d="m 891.2,345.7 12.3,21.3 c -4.4,3 -8.9,5.7 -13.6,8.1 l -12.3,-21.3 c 4.7,-2.4 9.2,-5.1 13.6,-8.1"
   id="path1555" />
										<path
   class="st67"
   d="m 877.6,353.9 12.3,21.3 c -4.8,2.5 -9.8,4.8 -14.9,6.7 l -12.3,-21.3 c 5.1,-2 10.1,-4.2 14.9,-6.7"
   id="path1557" />
										<path
   class="st67"
   d="m 862.7,360.6 12.3,21.3 c -5.6,2.2 -11.4,4 -17.4,5.5 -0.6,0.1 -1.1,0.3 -1.7,0.4 l -12.3,-21.3 c 0.6,-0.1 1.1,-0.3 1.7,-0.4 6,-1.5 11.8,-3.3 17.4,-5.5"
   id="path1559" />
										<path
   class="st67"
   d="m 843.7,366.5 12.3,21.3 c -1.3,0.3 -2.6,0.6 -3.9,0.9 l -12.3,-21.3 c 1.3,-0.3 2.6,-0.6 3.9,-0.9"
   id="path1561" />
									</g>
								</g>
							</g>
						</g>
						<g
   class="st11"
   id="g1587">
							<g
   id="g1585">
								<g
   id="g1583">
									<defs
   id="defs1572">
										<path
   id="SVGID_00000000945029567509118770000006166681581491360183_"
   d="m 857.6,387.4 c -1.8,0.5 -3.7,0.9 -5.6,1.3 l -12.3,-21.2 c 1.8,-0.4 3.7,-0.8 5.6,-1.3 3.7,6.3 8.6,14.8 12.3,21.2 z" />
									</defs>
									<clipPath
   id="SVGID_00000012450572126610754640000013448317251071900317_">
										<use
   xlink:href="#SVGID_00000000945029567509118770000006166681581491360183_"
   style="overflow:visible"
   id="use1574"
   x="0"
   y="0"
   width="100%"
   height="100%" />
									</clipPath>
									<g
   style="enable-background:new"
   clip-path="url(#SVGID_00000012450572126610754640000013448317251071900317_)"
   id="g1581">
										<path
   class="st70"
   d="m 845.4,366.2 12.3,21.2 c -0.6,0.1 -1.1,0.3 -1.7,0.4 l -12.3,-21.2 c 0.5,-0.1 1.1,-0.3 1.7,-0.4"
   id="path1577" />
										<path
   class="st71"
   d="m 843.7,366.6 12.3,21.2 c -1.3,0.3 -2.6,0.6 -3.9,0.9 l -12.3,-21.2 c 1.3,-0.3 2.6,-0.6 3.9,-0.9"
   id="path1579" />
									</g>
								</g>
							</g>
						</g>
						<g
   id="g1608">
							<g
   id="g1590">
								<path
   id="SVGID_55_"
   class="st67"
   d="m 852.7,388.5 c -0.2,0 -0.4,0.1 -0.7,0.1 l -12.3,-21.2 c 1.8,-0.4 3.7,-0.8 5.6,-1.3 3.7,6.4 8.6,14.9 12.3,21.2 -1.2,0.4 -2.6,0.8 -4.9,1.2 z" />
							</g>
							<g
   id="g1606">
								<g
   id="g1604">
									<defs
   id="defs1593">
										<path
   id="SVGID_00000102541821366488966000000002545170727571570859_"
   d="m 852.7,388.5 c -0.2,0 -0.4,0.1 -0.7,0.1 l -12.3,-21.2 c 1.8,-0.4 3.7,-0.8 5.6,-1.3 3.7,6.4 8.6,14.9 12.3,21.2 -1.2,0.4 -2.6,0.8 -4.9,1.2 z" />
									</defs>
									<clipPath
   id="SVGID_00000039108209755050807170000000010964179829550744_">
										<use
   xlink:href="#SVGID_00000102541821366488966000000002545170727571570859_"
   style="overflow:visible"
   id="use1595"
   x="0"
   y="0"
   width="100%"
   height="100%" />
									</clipPath>
									<g
   style="enable-background:new"
   clip-path="url(#SVGID_00000039108209755050807170000000010964179829550744_)"
   id="g1602">
										<path
   class="st67"
   d="m 845.4,366.2 12.3,21.2 c -0.6,0.1 -1.1,0.3 -1.7,0.4 l -12.3,-21.2 c 0.5,-0.1 1.1,-0.3 1.7,-0.4"
   id="path1598" />
										<path
   class="st67"
   d="m 843.7,366.6 12.3,21.2 c -1.3,0.3 -2.6,0.6 -3.9,0.9 l -12.3,-21.2 c 1.3,-0.3 2.6,-0.6 3.9,-0.9"
   id="path1600" />
									</g>
								</g>
							</g>
						</g>
						<g
   id="g1612">
							<path
   class="st4"
   d="m 842.3,343.8 c 17.2,-3.6 34.7,-12.4 48.4,-25.3 2.5,-2.4 4.9,-4.9 7.2,-7.5 l 22.3,9 c -1.1,1.3 -2.3,2.6 -3.5,3.9 l -0.1,0.2 c -0.9,1 -1.8,1.9 -2.7,2.9 -0.1,0.2 -0.3,0.3 -0.4,0.5 -1.4,1.4 -2.8,2.8 -4.3,4.2 -17.8,16.7 -39.6,28.6 -63.7,34.6 -1.8,0.4 -3.7,0.9 -5.6,1.3 z"
   id="path1610" />
						</g>
						<g
   id="g1631">
							<g
   id="g1615">
								<path
   id="SVGID_57_"
   class="st67"
   d="m 920.1,319.9 12.3,21.4 c -1.2,1.4 -2.4,2.7 -3.6,4 l -12.3,-21.4 c 1.3,-1.3 2.5,-2.6 3.6,-4 z" />
							</g>
							<g
   id="g1629">
								<g
   id="g1627">
									<defs
   id="defs1618">
										<path
   id="SVGID_00000018219246829918535260000010181949767461769893_"
   d="m 920.1,319.9 12.3,21.4 c -1.2,1.4 -2.4,2.7 -3.6,4 l -12.3,-21.4 c 1.3,-1.3 2.5,-2.6 3.6,-4 z" />
									</defs>
									<clipPath
   id="SVGID_00000045617799482703182890000009913614750131806371_">
										<use
   xlink:href="#SVGID_00000018219246829918535260000010181949767461769893_"
   style="overflow:visible"
   id="use1620"
   x="0"
   y="0"
   width="100%"
   height="100%" />
									</clipPath>
									<g
   style="enable-background:new"
   clip-path="url(#SVGID_00000045617799482703182890000009913614750131806371_)"
   id="g1625">
										<path
   class="st67"
   d="m 920.1,319.9 12.3,21.4 c -1.2,1.4 -2.4,2.7 -3.6,4 l -12.3,-21.4 c 1.3,-1.3 2.5,-2.6 3.6,-4"
   id="path1623" />
									</g>
								</g>
							</g>
						</g>
					</g>
				</g>
			</g>
			<path
   class="st74"
   d="M 823.9,457.7"
   id="path1639" />
			<line
   class="st75"
   x1="364.89999"
   y1="596"
   x2="479"
   y2="686.20001"
   id="line1641" />
			<line
   class="st75"
   x1="280.89999"
   y1="843.59998"
   x2="396.70001"
   y2="843.59998"
   id="line1643" />
			<line
   class="st75"
   x1="1472.1"
   y1="876.09998"
   x2="1400.6"
   y2="876.09998"
   id="line1645" />
			<line
   class="st75"
   x1="1405.5"
   y1="624.79999"
   x2="1268.3"
   y2="704"
   id="line1647" />
			<line
   class="st75"
   x1="823.90002"
   y1="457.70001"
   x2="823.90002"
   y2="541.59998"
   id="line1649" />
			<g
   id="g1663">
				<g
   id="g1653">
					<path
   class="st4"
   d="m 1679.8,869.7 c 0,4.8 -3.6,8.7 -8.1,8.7 H 1656 V 911 l -38.5,-32.6 h -79 c -4.5,0 -8.1,-3.9 -8.1,-8.7 V 771 c 0,-4.8 3.6,-8.7 8.1,-8.7 h 133.3 c 4.5,0 8.1,3.9 8.1,8.7 z"
   id="path1651" />
				</g>
				<g
   id="g1661">
					<path
   class="st7"
   d="m 1633.7,819.9 c 0,4.7 3.8,8.6 8.6,8.6 4.7,0 8.6,-3.8 8.6,-8.6 0,-4.8 -3.8,-8.6 -8.6,-8.6 -4.8,0 -8.6,3.9 -8.6,8.6 z"
   id="path1655" />
					<path
   class="st7"
   d="m 1596,819.9 c 0,4.7 3.8,8.6 8.6,8.6 4.8,0 8.6,-3.8 8.6,-8.6 0,-4.8 -3.8,-8.6 -8.6,-8.6 -4.8,0 -8.6,3.9 -8.6,8.6 z"
   id="path1657" />
					<path
   class="st7"
   d="m 1558.3,819.9 c 0,4.7 3.8,8.6 8.6,8.6 4.7,0 8.6,-3.8 8.6,-8.6 0,-4.8 -3.8,-8.6 -8.6,-8.6 -4.8,0 -8.6,3.9 -8.6,8.6 z"
   id="path1659" />
				</g>
			</g>
		</g>
	</g>
</g>
<g
   id="g1742"
   transform="translate(-80.088201,-211.8)">
	<path
   class="st0"
   d="m 604.5,1620.3 c 0,56 -45.3,101.4 -101.3,101.4 -56,0 -101.4,-45.4 -101.4,-101.4 0,-55.9 45.4,-101.3 101.4,-101.3 55.9,-0.1 101.3,45.4 101.3,101.3 z"
   id="path1670" />
	<path
   class="st9"
   d="m 986.3,1631.6 c 7.4,-15.4 11.7,-32.6 11.7,-50.8 0,-64.7 -52.4,-117.1 -117.1,-117.1 -64.7,0 -117.1,52.4 -117.1,117.1 0,18.2 4.3,35.4 11.8,50.8 z"
   id="path1672" />
	<polygon
   class="st0"
   points="779,1636.4 675.8,1636.4 572.7,1636.4 624.3,1194.1 675.8,955.2 727.4,1194.1 "
   id="polygon1674" />
	<polygon
   class="st7"
   points="747.7,1636.4 675.8,1636.4 603.9,1636.4 639.9,1194.1 675.8,955.2 711.8,1194.1 "
   id="polygon1676" />
	<polygon
   class="st0"
   points="697.1,1636.4 675.8,1636.4 654.5,1636.4 665.2,1194.1 675.8,955.2 686.5,1194.1 "
   id="polygon1678" />
	<path
   class="st0"
   d="m 928.6,1638.1 c 0.5,-3.9 0.8,-8 0.8,-12 0,-55.9 -45.3,-101.3 -101.3,-101.3 -15.8,0 -30.7,3.7 -44.1,10.2 -15.4,-52.8 -64.1,-91.4 -121.9,-91.4 -63.2,0 -115.4,46.1 -125.3,106.4 -32.5,5.7 -61,22.8 -81.2,47.2 -6.6,-2.2 -13.8,-3.4 -21.2,-3.4 -37.8,0 -68.5,30.7 -68.5,68.5 0,37.4 29.9,67.7 67.1,68.4 0,0 0,0 0,0.1 h 197.7 57 24.7 129 81.8 c 0,-0.1 0.1,-0.3 0.1,-0.4 1.3,0.1 2.5,0.4 3.8,0.4 25.7,0 46.4,-20.8 46.4,-46.4 0,-25.1 -20,-45.5 -44.9,-46.3 z"
   id="path1680" />
	<path
   class="st9"
   d="m 543.8,1474.2 c -16.2,0 -31.3,4.7 -44.2,12.7 -0.6,-69.6 -57.2,-125.8 -127,-125.8 -54.8,0 -101.2,34.7 -119.1,83.1 -13.5,-4.9 -28,-7.7 -43.3,-7.7 -54.2,0 -100.2,33.9 -118.6,81.5 11.2,8.6 25.2,14 40.4,14.3 v 0 h 197.7 57 24.7 129 81.8 c 0,-0.1 0.1,-0.2 0.1,-0.4 0.3,0 0.6,0 0.9,0.1 -10.8,-33.5 -42.2,-57.8 -79.4,-57.8 z"
   id="path1682" />
	<g
   id="g1688">
		<path
   class="st0"
   d="m 937.6,1614.4 c 1,21.8 -15.9,40.4 -37.8,41.4 -21.8,1 -40.4,-15.9 -41.4,-37.7 -1,-21.9 15.9,-40.4 37.7,-41.4 21.9,-1.1 40.5,15.8 41.5,37.7 z"
   id="path1684" />
		<path
   class="st0"
   d="m 1046.2,1649 c 2.8,-8.6 4.1,-17.9 3.7,-27.5 -2,-43.3 -38.8,-76.9 -82.2,-74.8 -43.4,2 -76.9,38.9 -74.8,82.2 0.5,9.6 2.7,18.7 6.2,27 z"
   id="path1686" />
	</g>
	<g
   id="g1740">
		<g
   id="g1694">
			<path
   class="st76"
   d="m 682.4,1066.1 c -42.3,0 -76.7,57 -76.7,127.3 0,8.9 0.6,17.6 1.6,26 h 150.1 c 1.1,-8.4 1.6,-17.1 1.6,-26 0.1,-70.3 -34.2,-127.3 -76.6,-127.3 z"
   id="path1690" />
			<path
   class="st2"
   d="m 669.3,1066.1 c -35.7,0 -64.6,57 -64.6,127.3 0,8.9 0.5,17.6 1.4,26 h 126.5 c 0.9,-8.4 1.4,-17.1 1.4,-26 -0.1,-70.3 -29.1,-127.3 -64.7,-127.3 z"
   id="path1692" />
		</g>
		<g
   id="g1712">
			<g
   id="g1702">
				<path
   class="st2"
   d="m 610,761 c 0,135.7 -69.5,253.7 -172.1,314.9 -3.1,2.9 -6.1,5.7 -9.1,8.4 -19,17.3 -12.8,99 -12.8,99 h 195 c 0,0 0,-425.4 0,-472.8 0,7.3 -0.6,16.5 -1.8,27.1 0.5,7.8 0.8,15.5 0.8,23.4 z"
   id="path1696" />
				<path
   class="st7"
   d="m 611,919.3 c -31.1,79.1 -89.8,144.8 -164.4,185.3 -3.4,2.9 -6.7,5.7 -9.9,8.4 -12.7,10.5 -15.1,45 -15.1,70.3 H 611 c 0,0 0,-136.9 0,-264 z"
   id="path1698" />
				<path
   class="st0"
   d="m 438.7,1173.7 c -3,2.2 -5.5,5.5 -7.6,9.6 H 611 c 0,0 0,-70.1 0,-156.5 -37.8,58.2 -93.7,106.3 -161.1,138.6 -3.8,2.8 -7.5,5.6 -11.2,8.3 z"
   id="path1700" />
			</g>
			<g
   id="g1710">
				<path
   class="st2"
   d="m 754.8,761 c 0,135.7 69.5,253.7 172.1,314.9 3,2.9 6.1,5.7 9,8.4 18.9,17.3 12.8,99 12.8,99 H 753.8 c 0,0 0,-425.4 0,-472.8 0,7.3 0.6,16.5 1.8,27.1 -0.5,7.8 -0.8,15.5 -0.8,23.4 z"
   id="path1704" />
				<path
   class="st7"
   d="m 753.8,919.3 c 31.1,79.1 89.7,144.8 164.4,185.3 3.4,2.9 6.7,5.7 9.9,8.4 12.7,10.5 15.1,45 15.1,70.3 H 753.8 c 0,0 0,-136.9 0,-264 z"
   id="path1706" />
				<path
   class="st0"
   d="m 926.2,1173.7 c 3,2.2 5.5,5.5 7.6,9.6 h -180 c 0,0 0,-70.1 0,-156.5 37.8,58.2 93.7,106.3 161.1,138.6 3.8,2.8 7.6,5.6 11.3,8.3 z"
   id="path1708" />
			</g>
		</g>
		<g
   id="g1722">
			<path
   class="st0"
   d="M 758.8,1183.3 V 694.5 C 758.8,649.8 725.5,504.6 682.4,480.7 639.3,504.6 606,649.8 606,694.5 v 488.8 z"
   id="path1714" />
			<path
   class="st7"
   d="m 682.4,480.7 c -0.4,0.2 -0.8,0.6 -1.3,0.8 v 701.8 h 77.7 V 694.5 c 0,-44.7 -33.3,-189.9 -76.4,-213.8 z"
   id="path1716" />
			<path
   class="st2"
   d="M 627.8,580.5 H 737 c -13.7,-45.2 -32.9,-87.8 -54.6,-99.8 -21.7,12 -40.8,54.7 -54.6,99.8 z"
   id="path1718" />
			<path
   class="st76"
   d="M 681.1,580.5 H 737 c -13.7,-45.2 -32.9,-87.8 -54.6,-99.8 -0.4,0.2 -0.8,0.6 -1.3,0.8 z"
   id="path1720" />
		</g>
		<path
   class="st2"
   d="m 729.4,661.5 c -3.2,7.1 -13.5,4.5 -25.7,-0.1 -13.9,-5.5 -29.5,-5.5 -43.4,0 -12.2,4.5 -22.6,7.2 -25.7,0.1 v 0 c -3.3,-7 4.4,-23.8 20.2,-30 17.4,-6.8 37,-6.8 54.4,0 15.8,6.1 23.4,23 20.2,30 z"
   id="path1724" />
		<g
   id="g1738">
			<g
   id="g1730">
				<path
   class="st2"
   d="m 526.6,1066.1 c -18.5,0 -33.5,57 -33.5,127.3 0,8.9 0.3,17.6 0.7,26 h 65.7 c 0.5,-8.4 0.7,-17.1 0.7,-26 0,-70.3 -15,-127.3 -33.6,-127.3 z"
   id="path1726" />
				<path
   class="st76"
   d="m 526.6,1066.1 c -4.8,0 -9.4,4 -13.5,10.9 15.2,8.3 26.9,57.9 26.9,118 0,8.4 -0.2,16.5 -0.6,24.4 h 20.2 c 0.5,-8.4 0.7,-17.1 0.7,-26 -0.1,-70.3 -15.1,-127.3 -33.7,-127.3 z"
   id="path1728" />
			</g>
			<g
   id="g1736">
				<path
   class="st2"
   d="m 838.1,1066.1 c -18.5,0 -33.5,57 -33.5,127.3 0,8.9 0.2,17.6 0.7,26 H 871 c 0.5,-8.4 0.7,-17.1 0.7,-26 0,-70.3 -15,-127.3 -33.6,-127.3 z"
   id="path1732" />
				<path
   class="st76"
   d="m 838.1,1066.1 c -4.8,0 -9.4,4 -13.6,10.9 15.2,8.3 26.9,57.9 26.9,118 0,8.4 -0.2,16.5 -0.7,24.4 H 871 c 0.5,-8.4 0.7,-17.1 0.7,-26 0,-70.3 -15,-127.3 -33.6,-127.3 z"
   id="path1734" />
			</g>
		</g>
	</g>
</g>
<g
   id="g1790"
   transform="translate(-80.088201,-211.8)">
	<path
   class="st77"
   d="m 906,1705.2 -3.4,20.3 -20.6,0.4 c 0,0 -15.5,0.3 -19.3,0.4 -3.9,0.1 -27.1,0.6 -27.1,0.6 l -0.1,-7.4 c 0,0 32,-11.8 38.2,-24.4 6,-12.4 32.3,10.1 32.3,10.1 z"
   id="path1744" />
	<path
   class="st77"
   d="m 1115.8,1724.2 -0.2,9.7 -54.2,-1.1 -0.7,-26.2 32.7,-0.4 c 0,0 17.3,16.5 22.4,18 z"
   id="path1746" />
	<g
   id="g1764">
		<path
   class="st78"
   d="m 1198,630.7 c 0,0 3,-57.3 0.2,-57.4 -2.5,-0.1 -3.9,3.7 -3.9,3.7 l -3.2,16.1 1.5,-34.9 c 0,0 -2.8,-2 -4.9,0.3 -1.1,1.2 -1.6,3.3 -1.9,4.9 l -1.4,-9.5 c 0,0 0.1,-1.4 -2.4,-1.6 -2.6,-0.2 -3.9,3.8 -3.9,3.8 l -3.9,32.3 -6.5,-35.3 c 0,0 -2.4,-3.7 -5.2,-0.2 -0.9,1.2 -0.1,6.3 -0.1,6.3 l 0.8,9 1.3,20.1 -1.8,15.9 c 0,0 0.7,8.1 -8.6,-7.6 -5.2,-8.9 -9.9,-4.3 -9.9,-4.3 l 2.3,6.4 c 0,0 7.5,17.2 11.1,23.8 2.9,5.5 21.7,12.8 28.2,15.2 l -86.6,185.9 c 0,0 -18.4,59.7 55.9,30 61.6,-24.7 46.8,-166.8 39.9,-214.6 z"
   id="path1748" />
		<path
   class="st79"
   d="m 1120.1,977.3 43.2,-104.6 c 0,0 -45.3,-64.9 -59.5,-72 -2.5,-1.3 -48.8,58.8 -77.6,87.7 -32.2,32.1 77.6,47.6 93.9,88.9 z"
   id="path1750" />
		<path
   class="st4"
   d="m 1085.3,1175.5 c 0,4.7 -104.3,267.8 -104.3,267.8 l -70.5,260 h -46.9 l 48,-271.3 43.2,-259.3 z"
   id="path1752" />
		<path
   class="st4"
   d="m 1033.6,1232.8 c 5.7,16.9 23.4,224.2 23.4,224.2 l -1,258.2 h 48.8 l 14.2,-254.4 36.6,-285.9 -139,15.8 z"
   id="path1754" />
		<path
   class="st57"
   d="m 989.5,885.3 c 0,0 -62.9,37.6 -85.5,60.1 -22.5,22.5 9.4,-19.7 25.4,82.6 16,102.4 0.5,201.8 3.3,202.7 2.8,0.9 233.3,-47.7 233.3,-47.7 0,0 -24.1,-248.5 -46,-278.9 -14.4,-20 -34.7,-25.4 -34.7,-25.4 0,0 -60.1,0 -95.8,6.6 z"
   id="path1756" />
		<path
   class="st4"
   d="m 1016.6,1146.4 c -2.3,0 -3.8,-7.3 -3.5,-9.4 l 22.2,-133.3 c 0.4,-2.1 2.5,-11.3 4.8,-11.3 h 76.3 c 2.3,0 3.8,6.4 3.5,8.4 l -22.2,133.8 c -0.4,2.1 -2.5,11.7 -4.8,11.7 h -76.3 z"
   id="path1758" />
		<path
   class="st78"
   d="m 864.6,1048.7 c 0,0 -23.5,47.9 -21.6,89.2 1.9,41.3 134.5,33.2 167.2,16.9 9.4,-4.7 28.2,-7.5 28.2,-7.5 l 20.7,-22.6 6.6,-14.1 c 0,0 -5.2,-16.6 -9.4,-13.1 -16.4,13.6 -33.3,26.3 -37.1,25.8 -3.1,-0.4 -2.8,-9.9 -3.8,-11.7 -3.8,-7.5 -8.5,2.4 -11.7,22.6 -1.3,7.6 -50.7,-17.8 -87.4,-19.7 -3.8,-0.2 10.3,-52.6 10.3,-52.6 0,0 -35.7,-15.1 -62,-13.2 z"
   id="path1760" />
		<path
   class="st79"
   d="m 895.6,952.9 c 0,0 -52.6,82.6 -45.1,86.4 7.5,3.8 48.8,34.7 71.4,53.5 22.5,18.8 23.5,-117.4 -26.3,-139.9 z"
   id="path1762" />
	</g>
	<g
   id="g1788">
		<g
   id="g1768">
			<path
   class="st78"
   d="m 1002.8,933.2 c 19.9,1.9 38.7,-15.4 49.1,-42.1 -14.4,-6.8 -27.8,-21.8 -28.4,-42.2 -0.9,-31.6 -36.3,-2.8 -36.3,-2.8 0,0 10.2,34.4 -2.8,45.6 -10.2,8.8 2.3,39.9 18.4,41.5 z"
   id="path1766" />
		</g>
		<path
   class="st80"
   d="m 957.8,811.9 c 0,0 -48.4,-11.8 -35.4,-41.6 13,-29.8 14.3,-10.5 14.9,-23 0.6,-12.4 -6.2,-40.4 10.5,-36.6 16.8,3.7 29.2,2.5 46.6,-7.5 17.4,-9.9 26.1,-16.8 31.7,1.9 5.6,18.6 4.9,16.1 24.8,18 19.9,1.9 25.5,5.6 18.6,16.1 -6.8,10.6 -16.8,14.3 -7.5,24.8 9.3,10.5 11.2,21.1 3.7,28.6 -7.5,7.5 -40.7,21.4 -40.7,21.4 z"
   id="path1770" />
		<path
   class="st81"
   d="m 1032.9,788.8 c 0,0 15.7,-10.4 19.5,-2.7 3.7,7.7 2,21.2 -3.9,27.7 -5.9,6.6 -12.9,15.7 -17.5,0.5 -4.7,-15.2 1.9,-25.5 1.9,-25.5 z"
   id="path1772" />
		<path
   class="st81"
   d="m 947.1,818.3 c 0,0 -7.3,-19.8 8.1,-17.9 8.5,1 19,9.6 21.4,18.1 2.4,8.5 6.4,19.3 -8.9,15.1 -15.3,-4.2 -20.6,-15.3 -20.6,-15.3 z"
   id="path1774" />
		<path
   class="st81"
   d="m 1026.2,863 c -1.6,-4.4 -2.5,-9.1 -2.7,-14.2 -0.9,-31.6 -36.3,-2.8 -36.3,-2.8 0,0 10.2,34.4 -2.8,45.6 -0.6,0.5 -1.2,1 -1.7,1.5 19.5,-2.2 35.8,-13.9 43.5,-30.1 z"
   id="path1776" />
		<path
   class="st78"
   d="m 953.7,797.6 c 0,0 11.9,43.5 32.6,59.6 13.9,10.9 35.1,2.2 47.5,-20.8 12.2,-22.5 7.5,-100.2 -16.7,-88.1 -24.2,12.1 -3.7,-15.8 -16.8,-6.5 -13,9.3 8.4,45.6 -46.6,55.8 z"
   id="path1778" />
		<path
   class="st82"
   d="m 995.2,805.3 c 0,9.7 -7.8,17.5 -17.5,17.5 -9.7,0 -17.5,-7.8 -17.5,-17.5 0,-9.7 7.9,-17.5 17.5,-17.5 9.7,0 17.5,7.8 17.5,17.5 z"
   id="path1780" />
		<path
   class="st82"
   d="m 1034.6,797.4 c 0,9.7 -7.8,17.5 -17.5,17.5 -9.6,0 -17.5,-7.8 -17.5,-17.5 0,-9.7 7.8,-17.5 17.5,-17.5 9.7,0 17.5,7.9 17.5,17.5 z"
   id="path1782" />
		<line
   class="st82"
   x1="993.90002"
   y1="802.59998"
   x2="1003"
   y2="801.09998"
   id="line1784" />
		<path
   class="st82"
   d="m 995.6,841.4 c 0,0 15.8,4.7 27.9,-15.8"
   id="path1786" />
	</g>
</g>
</svg>
